<svg width="1080" height="1080" viewBox="0 0 1080 1080" fill="none" xmlns="http://www.w3.org/2000/svg">
<rect x="2.5" y="2.5" width="1075" height="1075" fill="#F0EDA3"/>
<circle cx="540.5" cy="540.5" r="238.5" fill="white"/>
<path d="M293.125 544.297C280.26 540.599 270.885 536.068 265 530.703C259.167 525.286 256.25 518.62 256.25 510.703C256.25 501.745 259.818 494.349 266.953 488.516C274.141 482.63 283.464 479.688 294.922 479.688C302.734 479.688 309.688 481.198 315.781 484.219C321.927 487.24 326.667 491.406 330 496.719C333.385 502.031 335.078 507.839 335.078 514.141H320C320 507.266 317.812 501.875 313.438 497.969C309.062 494.01 302.891 492.031 294.922 492.031C287.526 492.031 281.745 493.672 277.578 496.953C273.464 500.182 271.406 504.688 271.406 510.469C271.406 515.104 273.359 519.036 277.266 522.266C281.224 525.443 287.917 528.359 297.344 531.016C306.823 533.672 314.219 536.615 319.531 539.844C324.896 543.021 328.854 546.745 331.406 551.016C334.01 555.286 335.312 560.312 335.312 566.094C335.312 575.312 331.719 582.708 324.531 588.281C317.344 593.802 307.734 596.562 295.703 596.562C287.891 596.562 280.599 595.078 273.828 592.109C267.057 589.089 261.823 584.974 258.125 579.766C254.479 574.557 252.656 568.646 252.656 562.031H267.734C267.734 568.906 270.26 574.349 275.312 578.359C280.417 582.318 287.214 584.297 295.703 584.297C303.62 584.297 309.688 582.682 313.906 579.453C318.125 576.224 320.234 571.823 320.234 566.25C320.234 560.677 318.281 556.38 314.375 553.359C310.469 550.286 303.385 547.266 293.125 544.297ZM433.203 493.594H396.641V595H381.719V493.594H345.234V481.25H433.203V493.594ZM506.641 565.312H458.984L448.281 595H432.812L476.25 481.25H489.375L532.891 595H517.5L506.641 565.312ZM463.516 552.969H502.188L482.812 499.766L463.516 552.969ZM630.938 558.906C629.531 570.938 625.078 580.234 617.578 586.797C610.13 593.307 600.208 596.562 587.812 596.562C574.375 596.562 563.594 591.745 555.469 582.109C547.396 572.474 543.359 559.583 543.359 543.438V532.5C543.359 521.927 545.234 512.63 548.984 504.609C552.786 496.589 558.151 490.443 565.078 486.172C572.005 481.849 580.026 479.688 589.141 479.688C601.224 479.688 610.911 483.073 618.203 489.844C625.495 496.562 629.74 505.885 630.938 517.812H615.859C614.557 508.75 611.719 502.188 607.344 498.125C603.021 494.062 596.953 492.031 589.141 492.031C579.557 492.031 572.031 495.573 566.562 502.656C561.146 509.74 558.438 519.818 558.438 532.891V543.906C558.438 556.25 561.016 566.068 566.172 573.359C571.328 580.651 578.542 584.297 587.812 584.297C596.146 584.297 602.526 582.422 606.953 578.672C611.432 574.87 614.401 568.281 615.859 558.906H630.938ZM680.391 542.109L666.484 556.562V595H651.484V481.25H666.484V537.5L717.031 481.25H735.156L690.391 531.484L738.672 595H720.703L680.391 542.109ZM785.312 544.297C772.448 540.599 763.073 536.068 757.188 530.703C751.354 525.286 748.438 518.62 748.438 510.703C748.438 501.745 752.005 494.349 759.141 488.516C766.328 482.63 775.651 479.688 787.109 479.688C794.922 479.688 801.875 481.198 807.969 484.219C814.115 487.24 818.854 491.406 822.188 496.719C825.573 502.031 827.266 507.839 827.266 514.141H812.188C812.188 507.266 810 501.875 805.625 497.969C801.25 494.01 795.078 492.031 787.109 492.031C779.714 492.031 773.932 493.672 769.766 496.953C765.651 500.182 763.594 504.688 763.594 510.469C763.594 515.104 765.547 519.036 769.453 522.266C773.411 525.443 780.104 528.359 789.531 531.016C799.01 533.672 806.406 536.615 811.719 539.844C817.083 543.021 821.042 546.745 823.594 551.016C826.198 555.286 827.5 560.312 827.5 566.094C827.5 575.312 823.906 582.708 816.719 588.281C809.531 593.802 799.922 596.562 787.891 596.562C780.078 596.562 772.786 595.078 766.016 592.109C759.245 589.089 754.01 584.974 750.312 579.766C746.667 574.557 744.844 568.646 744.844 562.031H759.922C759.922 568.906 762.448 574.349 767.5 578.359C772.604 582.318 779.401 584.297 787.891 584.297C795.807 584.297 801.875 582.682 806.094 579.453C810.312 576.224 812.422 571.823 812.422 566.25C812.422 560.677 810.469 556.38 806.562 553.359C802.656 550.286 795.573 547.266 785.312 544.297Z" fill="black"/>
<rect x="2.5" y="2.5" width="1075" height="1075" stroke="black" stroke-width="5"/>
</svg>
