<svg width="1080" height="1080" viewBox="0 0 1080 1080" fill="none" xmlns="http://www.w3.org/2000/svg">
<rect x="2.5" y="2.5" width="1075" height="1075" fill="#63BEAE"/>
<circle cx="540.5" cy="540.5" r="238.5" fill="white"/>
<path d="M322.297 565.312H274.641L263.938 595H248.469L291.906 481.25H305.031L348.547 595H333.156L322.297 565.312ZM279.172 552.969H317.844L298.469 499.766L279.172 552.969ZM405.578 548.984H378.859V595H363.781V481.25H401.438C414.25 481.25 424.094 484.167 430.969 490C437.896 495.833 441.359 504.323 441.359 515.469C441.359 522.552 439.432 528.724 435.578 533.984C431.776 539.245 426.464 543.177 419.641 545.781L446.359 594.062V595H430.266L405.578 548.984ZM378.859 536.719H401.906C409.354 536.719 415.266 534.792 419.641 530.938C424.068 527.083 426.281 521.927 426.281 515.469C426.281 508.438 424.172 503.047 419.953 499.297C415.786 495.547 409.745 493.646 401.828 493.594H378.859V536.719ZM504.172 548.984H477.453V595H462.375V481.25H500.031C512.844 481.25 522.688 484.167 529.562 490C536.49 495.833 539.953 504.323 539.953 515.469C539.953 522.552 538.026 528.724 534.172 533.984C530.37 539.245 525.057 543.177 518.234 545.781L544.953 594.062V595H528.859L504.172 548.984ZM477.453 536.719H500.5C507.948 536.719 513.859 534.792 518.234 530.938C522.661 527.083 524.875 521.927 524.875 515.469C524.875 508.438 522.766 503.047 518.547 499.297C514.38 495.547 508.339 493.646 500.422 493.594H477.453V536.719ZM623.859 565.312H576.203L565.5 595H550.031L593.469 481.25H606.594L650.109 595H634.719L623.859 565.312ZM580.734 552.969H619.406L600.031 499.766L580.734 552.969ZM692.766 538.359L722.453 481.25H739.484L700.266 552.578V595H685.266V552.578L646.047 481.25H663.234L692.766 538.359ZM786.438 544.297C773.573 540.599 764.198 536.068 758.312 530.703C752.479 525.286 749.562 518.62 749.562 510.703C749.562 501.745 753.13 494.349 760.266 488.516C767.453 482.63 776.776 479.688 788.234 479.688C796.047 479.688 803 481.198 809.094 484.219C815.24 487.24 819.979 491.406 823.312 496.719C826.698 502.031 828.391 507.839 828.391 514.141H813.312C813.312 507.266 811.125 501.875 806.75 497.969C802.375 494.01 796.203 492.031 788.234 492.031C780.839 492.031 775.057 493.672 770.891 496.953C766.776 500.182 764.719 504.688 764.719 510.469C764.719 515.104 766.672 519.036 770.578 522.266C774.536 525.443 781.229 528.359 790.656 531.016C800.135 533.672 807.531 536.615 812.844 539.844C818.208 543.021 822.167 546.745 824.719 551.016C827.323 555.286 828.625 560.312 828.625 566.094C828.625 575.312 825.031 582.708 817.844 588.281C810.656 593.802 801.047 596.562 789.016 596.562C781.203 596.562 773.911 595.078 767.141 592.109C760.37 589.089 755.135 584.974 751.438 579.766C747.792 574.557 745.969 568.646 745.969 562.031H761.047C761.047 568.906 763.573 574.349 768.625 578.359C773.729 582.318 780.526 584.297 789.016 584.297C796.932 584.297 803 582.682 807.219 579.453C811.438 576.224 813.547 571.823 813.547 566.25C813.547 560.677 811.594 556.38 807.688 553.359C803.781 550.286 796.698 547.266 786.438 544.297Z" fill="black"/>
<rect x="2.5" y="2.5" width="1075" height="1075" stroke="black" stroke-width="5"/>
</svg>
