<svg width="1080" height="1080" viewBox="0 0 1080 1080" fill="none" xmlns="http://www.w3.org/2000/svg">
<rect x="2.5" y="2.5" width="1075" height="1075" fill="#E2ABEF"/>
<circle cx="540.5" cy="540.5" r="238.5" fill="white"/>
<path d="M116.594 582.734H170.5V595H101.516V481.25H116.594V582.734ZM203.703 595H188.703V481.25H203.703V595ZM318.625 595H303.547L246.281 507.344V595H231.203V481.25H246.281L303.703 569.297V481.25H318.625V595ZM374.172 542.109L360.266 556.562V595H345.266V481.25H360.266V537.5L410.812 481.25H428.938L384.172 531.484L432.453 595H414.484L374.172 542.109ZM509.875 542.422H460.578V582.734H517.844V595H445.578V481.25H517.062V493.594H460.578V530.156H509.875V542.422ZM536.516 595V481.25H568.625C578.521 481.25 587.271 483.438 594.875 487.812C602.479 492.188 608.339 498.411 612.453 506.484C616.62 514.557 618.729 523.828 618.781 534.297V541.562C618.781 552.292 616.698 561.693 612.531 569.766C608.417 577.839 602.505 584.036 594.797 588.359C587.141 592.682 578.208 594.896 568 595H536.516ZM551.516 493.594V582.734H567.297C578.859 582.734 587.844 579.141 594.25 571.953C600.708 564.766 603.938 554.531 603.938 541.25V534.609C603.938 521.693 600.891 511.667 594.797 504.531C588.755 497.344 580.161 493.698 569.016 493.594H551.516ZM669.328 552.578H631.203V540.781H669.328V552.578ZM700.812 582.734H754.719V595H685.734V481.25H700.812V582.734ZM787.922 595H772.922V481.25H787.922V595ZM848.938 544.297C836.073 540.599 826.698 536.068 820.812 530.703C814.979 525.286 812.062 518.62 812.062 510.703C812.062 501.745 815.63 494.349 822.766 488.516C829.953 482.63 839.276 479.688 850.734 479.688C858.547 479.688 865.5 481.198 871.594 484.219C877.74 487.24 882.479 491.406 885.812 496.719C889.198 502.031 890.891 507.839 890.891 514.141H875.812C875.812 507.266 873.625 501.875 869.25 497.969C864.875 494.01 858.703 492.031 850.734 492.031C843.339 492.031 837.557 493.672 833.391 496.953C829.276 500.182 827.219 504.688 827.219 510.469C827.219 515.104 829.172 519.036 833.078 522.266C837.036 525.443 843.729 528.359 853.156 531.016C862.635 533.672 870.031 536.615 875.344 539.844C880.708 543.021 884.667 546.745 887.219 551.016C889.823 555.286 891.125 560.312 891.125 566.094C891.125 575.312 887.531 582.708 880.344 588.281C873.156 593.802 863.547 596.562 851.516 596.562C843.703 596.562 836.411 595.078 829.641 592.109C822.87 589.089 817.635 584.974 813.938 579.766C810.292 574.557 808.469 568.646 808.469 562.031H823.547C823.547 568.906 826.073 574.349 831.125 578.359C836.229 582.318 843.026 584.297 851.516 584.297C859.432 584.297 865.5 582.682 869.719 579.453C873.938 576.224 876.047 571.823 876.047 566.25C876.047 560.677 874.094 556.38 870.188 553.359C866.281 550.286 859.198 547.266 848.938 544.297ZM989.016 493.594H952.453V595H937.531V493.594H901.047V481.25H989.016V493.594Z" fill="black"/>
<rect x="2.5" y="2.5" width="1075" height="1075" stroke="black" stroke-width="5"/>
</svg>
