<svg width="1080" height="1080" viewBox="0 0 1080 1080" fill="none" xmlns="http://www.w3.org/2000/svg">
<rect x="2.5" y="2.5" width="1075" height="1075" fill="#A3F0AB"/>
<circle cx="540.5" cy="540.5" r="238.5" fill="white"/>
<path d="M343.391 541.797C343.391 552.786 341.646 562.266 338.156 570.234C334.667 578.151 329.771 584.349 323.469 588.828L343.781 604.766L333.547 614.219L309.562 595.156C305.812 596.094 301.854 596.562 297.688 596.562C288.729 596.562 280.786 594.375 273.859 590C266.932 585.573 261.542 579.297 257.688 571.172C253.885 562.995 251.932 553.542 251.828 542.812V534.609C251.828 523.672 253.729 514.01 257.531 505.625C261.333 497.24 266.698 490.833 273.625 486.406C280.604 481.927 288.573 479.688 297.531 479.688C306.698 479.688 314.745 481.901 321.672 486.328C328.651 490.755 334.016 497.135 337.766 505.469C341.516 513.75 343.391 523.438 343.391 534.531V541.797ZM328.391 534.453C328.391 521.068 325.708 510.755 320.344 503.516C315.031 496.224 307.427 492.578 297.531 492.578C288.104 492.578 280.656 496.198 275.188 503.438C269.771 510.625 266.984 520.625 266.828 533.438V541.797C266.828 554.818 269.536 565.078 274.953 572.578C280.422 580.078 288 583.828 297.688 583.828C307.375 583.828 314.875 580.312 320.188 573.281C325.5 566.198 328.234 556.068 328.391 542.891V534.453ZM446.594 481.25V558.594C446.542 569.323 443.156 578.099 436.438 584.922C429.771 591.745 420.708 595.573 409.25 596.406L405.266 596.562C392.818 596.562 382.896 593.203 375.5 586.484C368.104 579.766 364.354 570.521 364.25 558.75V481.25H379.094V558.281C379.094 566.51 381.359 572.917 385.891 577.5C390.422 582.031 396.88 584.297 405.266 584.297C413.755 584.297 420.24 582.031 424.719 577.5C429.25 572.969 431.516 566.589 431.516 558.359V481.25H446.594ZM534.562 542.422H485.266V582.734H542.531V595H470.266V481.25H541.75V493.594H485.266V530.156H534.562V542.422ZM641.281 481.25V558.594C641.229 569.323 637.844 578.099 631.125 584.922C624.458 591.745 615.396 595.573 603.938 596.406L599.953 596.562C587.505 596.562 577.583 593.203 570.188 586.484C562.792 579.766 559.042 570.521 558.938 558.75V481.25H573.781V558.281C573.781 566.51 576.047 572.917 580.578 577.5C585.109 582.031 591.568 584.297 599.953 584.297C608.443 584.297 614.927 582.031 619.406 577.5C623.938 572.969 626.203 566.589 626.203 558.359V481.25H641.281ZM729.25 542.422H679.953V582.734H737.219V595H664.953V481.25H736.438V493.594H679.953V530.156H729.25V542.422ZM789.406 544.297C776.542 540.599 767.167 536.068 761.281 530.703C755.448 525.286 752.531 518.62 752.531 510.703C752.531 501.745 756.099 494.349 763.234 488.516C770.422 482.63 779.745 479.688 791.203 479.688C799.016 479.688 805.969 481.198 812.062 484.219C818.208 487.24 822.948 491.406 826.281 496.719C829.667 502.031 831.359 507.839 831.359 514.141H816.281C816.281 507.266 814.094 501.875 809.719 497.969C805.344 494.01 799.172 492.031 791.203 492.031C783.807 492.031 778.026 493.672 773.859 496.953C769.745 500.182 767.688 504.688 767.688 510.469C767.688 515.104 769.641 519.036 773.547 522.266C777.505 525.443 784.198 528.359 793.625 531.016C803.104 533.672 810.5 536.615 815.812 539.844C821.177 543.021 825.135 546.745 827.688 551.016C830.292 555.286 831.594 560.312 831.594 566.094C831.594 575.312 828 582.708 820.812 588.281C813.625 593.802 804.016 596.562 791.984 596.562C784.172 596.562 776.88 595.078 770.109 592.109C763.339 589.089 758.104 584.974 754.406 579.766C750.76 574.557 748.938 568.646 748.938 562.031H764.016C764.016 568.906 766.542 574.349 771.594 578.359C776.698 582.318 783.495 584.297 791.984 584.297C799.901 584.297 805.969 582.682 810.188 579.453C814.406 576.224 816.516 571.823 816.516 566.25C816.516 560.677 814.562 556.38 810.656 553.359C806.75 550.286 799.667 547.266 789.406 544.297Z" fill="black"/>
<rect x="2.5" y="2.5" width="1075" height="1075" stroke="black" stroke-width="5"/>
</svg>
